<svg width="800" height="800" viewBox="0 0 800 800" fill="none" xmlns="http://www.w3.org/2000/svg">
<path d="M681.853 454.824C681.853 460.887 676.933 465.788 670.87 465.788H354.075L408.143 602.623C409.926 607.213 408.483 612.466 404.524 615.431C400.596 618.398 395.155 618.398 391.245 615.351L122.44 408.705C119.739 406.629 118.161 403.393 118.161 400.005C118.15 396.578 119.739 393.381 122.44 391.297L391.245 184.63C393.215 183.131 395.576 182.349 397.924 182.349C400.255 182.349 402.57 183.077 404.543 184.565C408.482 187.522 409.925 192.768 408.141 197.343L354.073 334.188L670.87 334.177C676.911 334.188 681.853 339.093 681.833 345.161L681.853 454.824ZM800 400.005C800 620.562 620.561 799.999 399.999 799.999C179.432 799.999 0 620.562 0 400.005C0 179.435 179.443 0.000732422 399.999 0.000732422C620.561 0.000732422 800 179.443 800 400.005ZM756.134 400.005C756.134 203.626 596.388 43.8699 399.999 43.8699C203.636 43.8699 43.859 203.626 43.859 400.005C43.8692 596.369 203.634 756.135 399.999 756.135C596.378 756.135 756.134 596.37 756.134 400.005Z" fill="white"/>
</svg>
