<svg width="2382" height="1495" viewBox="0 0 2382 1495" fill="none" xmlns="http://www.w3.org/2000/svg">
<mask id="path-1-outside-1_30_8" maskUnits="userSpaceOnUse" x="0" y="-0.214355" width="2382" height="1495" fill="black">
<rect fill="white" y="-0.214355" width="2382" height="1495"/>
<path d="M1434.41 40.3856C1425.74 41.0523 1398.54 44.7855 1391.74 46.2522C1388.81 46.9189 1381.61 48.3856 1375.74 49.5856C1344.27 56.2522 1302.14 71.4523 1265.74 89.4523C1240.54 101.852 1229.07 108.786 1204.67 126.252C1178.94 144.652 1164.01 157.186 1141.74 179.586C1120.01 201.186 1104.67 219.452 1087.74 243.586C1080.81 253.452 1073.61 263.319 1071.87 265.586L1068.81 269.452L1057.61 262.652C1047.07 256.252 1030.41 249.319 1013.74 244.386C977.74 233.852 943.607 236.652 910.407 253.319C898.807 259.052 893.074 263.319 879.34 276.119C872.674 282.386 866.54 287.586 865.874 287.586C865.207 287.586 854.54 283.719 842.14 278.919C810.407 266.519 791.207 261.852 759.074 258.252C687.74 250.386 613.607 273.852 551.074 323.986C514.274 353.719 480.54 399.319 462.94 443.186C458.274 454.919 447.474 484.652 445.607 491.186C443.74 497.319 441.074 499.452 436.007 498.919C433.74 498.652 424.274 497.719 415.074 496.919C376.14 493.452 335.074 505.319 295.207 531.586C276.807 543.719 258.007 561.852 242.674 582.119C227.607 601.986 213.074 635.986 208.274 662.252C206.007 674.386 205.874 714.786 208.14 724.252C211.474 739.319 215.34 761.186 215.474 767.052C215.74 773.719 215.74 773.719 206.407 777.719C199.34 780.786 178.007 793.186 167.074 800.652C133.34 823.586 104.14 854.652 82.0071 891.586C69.4738 912.386 62.2738 927.986 52.8071 955.586C44.4071 979.852 40.1405 1009.05 40.0071 1042.92C39.7405 1091.72 46.9405 1127.99 65.4738 1172.25C76.6738 1199.32 88.6738 1219.32 105.874 1239.85C142.94 1284.39 172.674 1306.79 226.407 1330.92C257.074 1344.79 301.207 1352.92 344.94 1352.92C389.474 1352.92 415.074 1346.25 490.407 1315.05C511.474 1306.25 510.941 1306.25 526.274 1322.52C562.007 1360.65 596.94 1384.39 645.74 1403.59C685.74 1419.45 733.874 1425.99 768.54 1420.39C831.074 1410.12 874.274 1391.85 928.54 1352.79C938.54 1345.59 949.74 1338.12 953.474 1335.99C959.474 1332.65 960.407 1332.52 963.607 1334.12C965.474 1335.19 977.474 1346.92 990.274 1360.25C1032.94 1404.65 1066.27 1427.05 1114.41 1443.32C1141.34 1452.39 1156.67 1454.79 1187.74 1454.79C1217.21 1454.79 1227.34 1453.19 1249.74 1444.92C1282.14 1432.92 1307.21 1416.92 1342.27 1385.72C1347.34 1381.32 1354.81 1375.05 1358.81 1371.85C1369.61 1363.45 1371.07 1363.72 1404.01 1379.99C1433.87 1394.79 1451.61 1402.12 1473.74 1408.92C1481.47 1411.19 1489.21 1413.59 1491.07 1414.25C1497.61 1416.39 1519.07 1421.19 1535.07 1424.12C1606.14 1436.92 1666.54 1433.45 1740.41 1411.99C1780.01 1400.52 1808.54 1387.32 1854.41 1359.05C1868.41 1350.52 1881.87 1342.92 1884.67 1342.25C1888.67 1341.05 1891.47 1341.59 1902.01 1344.92C1928.41 1353.45 1958.27 1360.25 1989.34 1364.79C2002.67 1366.79 2031.74 1366.52 2047.74 1364.39C2089.07 1358.65 2122.41 1346.25 2160.14 1322.52C2208.81 1291.85 2245.34 1256.39 2276.94 1208.92C2309.47 1160.12 2331.61 1094.65 2339.21 1024.92C2342.27 996.652 2342.41 975.052 2339.74 949.852C2333.61 892.386 2320.54 846.652 2296.14 797.586C2277.07 759.319 2256.54 731.319 2223.87 698.919C2191.87 667.186 2164.54 646.519 2132.41 629.986C2082.94 604.386 2034.94 592.919 1978.14 592.919C1963.74 592.919 1956.41 592.386 1955.34 591.319C1954.27 590.252 1954.01 583.186 1954.67 565.052C1955.74 530.386 1952.67 486.652 1946.94 455.586C1940.01 417.986 1926.67 372.919 1911.34 336.252C1905.47 322.252 1885.61 283.719 1876.01 268.252C1817.47 172.386 1725.61 100.652 1613.74 63.1855C1583.61 53.0522 1562.94 48.2522 1523.07 42.1189C1513.34 40.6522 1447.74 39.319 1434.41 40.3856ZM1513.07 118.919C1530.94 120.919 1535.74 121.719 1558.41 126.252C1620.81 138.519 1684.81 170.252 1733.74 212.786C1789.34 261.319 1834.41 331.319 1860.14 409.586C1868.81 435.719 1873.87 458.786 1878.01 490.919C1879.21 499.852 1879.74 520.252 1879.74 552.252C1879.61 601.586 1879.07 609.719 1873.07 640.919C1870.27 655.719 1868.54 671.186 1869.47 674.786C1869.74 676.252 1871.34 678.919 1872.81 680.519C1876.14 684.252 1881.34 684.386 1893.61 681.452C1936.81 671.319 1953.07 668.919 1978.67 668.919C2017.61 669.052 2058.27 678.119 2091.74 694.119C2132.54 713.586 2169.74 743.986 2195.61 778.919C2216.14 806.652 2229.74 831.319 2243.74 866.919C2257.34 901.319 2262.94 926.119 2266.54 966.919C2271.47 1024.25 2260.41 1079.85 2233.74 1132.92C2227.07 1145.99 2210.81 1171.32 2201.07 1183.72C2190.27 1197.45 2160.67 1226.65 2147.07 1237.19C2117.61 1259.85 2082.14 1276.65 2047.07 1284.52C2033.47 1287.59 2000.27 1287.45 1983.87 1284.39C1962.14 1280.12 1926.41 1269.05 1898.94 1258.25C1894.41 1256.39 1888.81 1255.32 1883.47 1255.32C1872.94 1255.19 1864.14 1259.19 1841.74 1274.39C1806.01 1298.52 1786.67 1309.72 1760.94 1321.32C1734.41 1333.32 1706.94 1342.25 1680.41 1347.45C1650.67 1353.19 1646.67 1353.59 1610.41 1353.45C1573.47 1353.32 1571.61 1353.19 1537.47 1346.25C1502.01 1339.19 1452.54 1319.45 1404.41 1293.45C1374.01 1277.05 1366.54 1273.72 1358.67 1273.19C1351.61 1272.65 1350.41 1272.92 1343.34 1277.59C1339.21 1280.39 1322.81 1295.72 1307.07 1311.59C1277.21 1341.85 1265.21 1351.85 1248.41 1360.65C1227.47 1371.59 1215.07 1374.39 1189.61 1374.39C1161.21 1374.39 1136.41 1368.25 1109.21 1354.39C1080.41 1339.72 1057.87 1320.12 1022.81 1278.92C989.607 1240.12 984.54 1236.25 965.74 1236.25C951.34 1236.25 950.274 1236.79 916.94 1261.85C872.007 1295.72 857.207 1305.45 834.407 1316.65C803.074 1331.99 764.14 1342.39 738.14 1342.25C701.607 1341.99 650.674 1324.79 618.407 1301.59C595.607 1285.32 579.474 1268.39 550.407 1230.39C547.474 1226.52 542.14 1221.19 538.407 1218.52C532.54 1214.12 530.94 1213.59 523.74 1213.59C516.274 1213.72 514.14 1214.52 489.74 1227.19C438.007 1254.12 400.94 1266.79 359.74 1271.59C342.674 1273.72 311.874 1271.72 293.74 1267.45C267.74 1261.32 255.874 1257.32 237.207 1247.99C216.274 1237.59 202.407 1227.99 186.407 1212.65C139.607 1167.99 113.207 1107.72 113.474 1045.59C113.474 1007.72 122.674 969.852 139.474 938.252C157.607 904.119 189.874 873.052 225.207 855.852C247.34 845.052 275.874 837.052 299.607 834.919C319.874 833.186 328.54 829.052 332.407 819.586C335.874 811.052 328.274 796.919 307.74 774.252C286.407 750.386 279.074 730.519 279.074 695.452C279.074 673.852 281.074 663.319 288.274 646.386C301.607 615.052 333.074 587.452 368.007 576.119C400.007 565.852 438.407 569.852 473.474 586.919C490.807 595.319 498.94 596.252 503.207 590.252C505.207 587.586 505.874 582.386 507.074 564.252C511.074 502.119 529.474 453.186 563.74 413.052C601.874 368.386 646.807 342.786 702.94 333.452C719.607 330.786 759.074 331.452 775.074 334.786C808.54 341.719 836.54 353.052 863.607 370.786C878.94 380.652 881.207 381.586 885.207 378.919C886.94 377.719 892.407 370.786 897.207 363.452C916.007 334.919 938.007 317.852 961.874 313.452C970.407 311.852 974.007 311.719 980.141 312.919C1003.07 317.452 1033.74 332.919 1044.81 345.586C1046.14 347.052 1050.81 353.586 1055.34 360.252C1064.54 373.986 1069.47 379.586 1072.01 379.586C1073.07 379.586 1076.14 380.786 1079.07 382.252C1085.47 385.586 1092.54 385.719 1096.01 382.519C1097.47 381.319 1101.21 373.986 1104.41 366.252C1117.07 335.319 1141.61 292.252 1156.81 273.719C1168.01 260.252 1170.67 257.319 1185.07 242.519C1219.61 206.919 1253.87 181.586 1295.74 160.652C1356.67 130.252 1408.14 117.452 1470.41 117.052C1485.07 117.052 1503.07 117.719 1513.07 118.919Z"/>
<path d="M1513.07 118.919C1530.94 120.919 1535.74 121.719 1558.41 126.252C1620.81 138.519 1684.81 170.252 1733.74 212.786C1789.34 261.319 1834.41 331.319 1860.14 409.586C1868.81 435.719 1873.87 458.786 1878.01 490.919C1879.21 499.852 1879.74 520.252 1879.74 552.252C1879.61 601.586 1879.07 609.719 1873.07 640.919C1870.27 655.719 1868.54 671.186 1869.47 674.786C1869.74 676.252 1871.34 678.919 1872.81 680.519C1876.14 684.252 1881.34 684.386 1893.61 681.452C1936.81 671.319 1953.07 668.919 1978.67 668.919C2017.61 669.052 2058.27 678.119 2091.74 694.119C2132.54 713.586 2169.74 743.986 2195.61 778.919C2216.14 806.652 2229.74 831.319 2243.74 866.919C2257.34 901.319 2262.94 926.119 2266.54 966.919C2271.47 1024.25 2260.41 1079.85 2233.74 1132.92C2227.07 1145.99 2210.81 1171.32 2201.07 1183.72C2190.27 1197.45 2160.67 1226.65 2147.07 1237.19C2117.61 1259.85 2082.14 1276.65 2047.07 1284.52C2033.47 1287.59 2000.27 1287.45 1983.87 1284.39C1962.14 1280.12 1926.41 1269.05 1898.94 1258.25C1894.41 1256.39 1888.81 1255.32 1883.47 1255.32C1872.94 1255.19 1864.14 1259.19 1841.74 1274.39C1806.01 1298.52 1786.67 1309.72 1760.94 1321.32C1734.41 1333.32 1706.94 1342.25 1680.41 1347.45C1650.67 1353.19 1646.67 1353.59 1610.41 1353.45C1573.47 1353.32 1571.61 1353.19 1537.47 1346.25C1502.01 1339.19 1452.54 1319.45 1404.41 1293.45C1374.01 1277.05 1366.54 1273.72 1358.67 1273.19C1351.61 1272.65 1350.41 1272.92 1343.34 1277.59C1339.21 1280.39 1322.81 1295.72 1307.07 1311.59C1277.21 1341.85 1265.21 1351.85 1248.41 1360.65C1227.47 1371.59 1215.07 1374.39 1189.61 1374.39C1161.21 1374.39 1136.41 1368.25 1109.21 1354.39C1080.41 1339.72 1057.87 1320.12 1022.81 1278.92C989.607 1240.12 984.54 1236.25 965.74 1236.25C951.34 1236.25 950.274 1236.79 916.94 1261.85C872.007 1295.72 857.207 1305.45 834.407 1316.65C803.074 1331.99 764.14 1342.39 738.14 1342.25C701.607 1341.99 650.674 1324.79 618.407 1301.59C595.607 1285.32 579.474 1268.39 550.407 1230.39C547.474 1226.52 542.14 1221.19 538.407 1218.52C532.54 1214.12 530.94 1213.59 523.74 1213.59C516.274 1213.72 514.14 1214.52 489.74 1227.19C438.007 1254.12 400.94 1266.79 359.74 1271.59C342.674 1273.72 311.874 1271.72 293.74 1267.45C267.74 1261.32 255.874 1257.32 237.207 1247.99C216.274 1237.59 202.407 1227.99 186.407 1212.65C139.607 1167.99 113.207 1107.72 113.474 1045.59C113.474 1007.72 122.674 969.852 139.474 938.252C157.607 904.119 189.874 873.052 225.207 855.852C247.34 845.052 275.874 837.052 299.607 834.919C319.874 833.186 328.54 829.052 332.407 819.586C335.874 811.052 328.274 796.919 307.74 774.252C286.407 750.386 279.074 730.519 279.074 695.452C279.074 673.852 281.074 663.319 288.274 646.386C301.607 615.052 333.074 587.452 368.007 576.119C400.007 565.852 438.407 569.852 473.474 586.919C490.807 595.319 498.94 596.252 503.207 590.252C505.207 587.586 505.874 582.386 507.074 564.252C511.074 502.119 529.474 453.186 563.74 413.052C601.874 368.386 646.807 342.786 702.94 333.452C719.607 330.786 759.074 331.452 775.074 334.786C808.54 341.719 836.54 353.052 863.607 370.786C878.94 380.652 881.207 381.586 885.207 378.919C886.94 377.719 892.407 370.786 897.207 363.452C916.007 334.919 938.007 317.852 961.874 313.452C970.407 311.852 974.007 311.719 980.141 312.919C1003.07 317.452 1033.74 332.919 1044.81 345.586C1046.14 347.052 1050.81 353.586 1055.34 360.252C1064.54 373.986 1069.47 379.586 1072.01 379.586C1073.07 379.586 1076.14 380.786 1079.07 382.252C1085.47 385.586 1092.54 385.719 1096.01 382.519C1097.47 381.319 1101.21 373.986 1104.41 366.252C1117.07 335.319 1141.61 292.252 1156.81 273.719C1168.01 260.252 1170.67 257.319 1185.07 242.519C1219.61 206.919 1253.87 181.586 1295.74 160.652C1356.67 130.252 1408.14 117.452 1470.41 117.052C1485.07 117.052 1503.07 117.719 1513.07 118.919Z"/>
</mask>
<path d="M1434.41 40.3856C1425.74 41.0523 1398.54 44.7855 1391.74 46.2522C1388.81 46.9189 1381.61 48.3856 1375.74 49.5856C1344.27 56.2522 1302.14 71.4523 1265.74 89.4523C1240.54 101.852 1229.07 108.786 1204.67 126.252C1178.94 144.652 1164.01 157.186 1141.74 179.586C1120.01 201.186 1104.67 219.452 1087.74 243.586C1080.81 253.452 1073.61 263.319 1071.87 265.586L1068.81 269.452L1057.61 262.652C1047.07 256.252 1030.41 249.319 1013.74 244.386C977.74 233.852 943.607 236.652 910.407 253.319C898.807 259.052 893.074 263.319 879.34 276.119C872.674 282.386 866.54 287.586 865.874 287.586C865.207 287.586 854.54 283.719 842.14 278.919C810.407 266.519 791.207 261.852 759.074 258.252C687.74 250.386 613.607 273.852 551.074 323.986C514.274 353.719 480.54 399.319 462.94 443.186C458.274 454.919 447.474 484.652 445.607 491.186C443.74 497.319 441.074 499.452 436.007 498.919C433.74 498.652 424.274 497.719 415.074 496.919C376.14 493.452 335.074 505.319 295.207 531.586C276.807 543.719 258.007 561.852 242.674 582.119C227.607 601.986 213.074 635.986 208.274 662.252C206.007 674.386 205.874 714.786 208.14 724.252C211.474 739.319 215.34 761.186 215.474 767.052C215.74 773.719 215.74 773.719 206.407 777.719C199.34 780.786 178.007 793.186 167.074 800.652C133.34 823.586 104.14 854.652 82.0071 891.586C69.4738 912.386 62.2738 927.986 52.8071 955.586C44.4071 979.852 40.1405 1009.05 40.0071 1042.92C39.7405 1091.72 46.9405 1127.99 65.4738 1172.25C76.6738 1199.32 88.6738 1219.32 105.874 1239.85C142.94 1284.39 172.674 1306.79 226.407 1330.92C257.074 1344.79 301.207 1352.92 344.94 1352.92C389.474 1352.92 415.074 1346.25 490.407 1315.05C511.474 1306.25 510.941 1306.25 526.274 1322.52C562.007 1360.65 596.94 1384.39 645.74 1403.59C685.74 1419.45 733.874 1425.99 768.54 1420.39C831.074 1410.12 874.274 1391.85 928.54 1352.79C938.54 1345.59 949.74 1338.12 953.474 1335.99C959.474 1332.65 960.407 1332.52 963.607 1334.12C965.474 1335.19 977.474 1346.92 990.274 1360.25C1032.94 1404.65 1066.27 1427.05 1114.41 1443.32C1141.34 1452.39 1156.67 1454.79 1187.74 1454.79C1217.21 1454.79 1227.34 1453.19 1249.74 1444.92C1282.14 1432.92 1307.21 1416.92 1342.27 1385.72C1347.34 1381.32 1354.81 1375.05 1358.81 1371.85C1369.61 1363.45 1371.07 1363.72 1404.01 1379.99C1433.87 1394.79 1451.61 1402.12 1473.74 1408.92C1481.47 1411.19 1489.21 1413.59 1491.07 1414.25C1497.61 1416.39 1519.07 1421.19 1535.07 1424.12C1606.14 1436.92 1666.54 1433.45 1740.41 1411.99C1780.01 1400.52 1808.54 1387.32 1854.41 1359.05C1868.41 1350.52 1881.87 1342.92 1884.67 1342.25C1888.67 1341.05 1891.47 1341.59 1902.01 1344.92C1928.41 1353.45 1958.27 1360.25 1989.34 1364.79C2002.67 1366.79 2031.74 1366.52 2047.74 1364.39C2089.07 1358.65 2122.41 1346.25 2160.14 1322.52C2208.81 1291.85 2245.34 1256.39 2276.94 1208.92C2309.47 1160.12 2331.61 1094.65 2339.21 1024.92C2342.27 996.652 2342.41 975.052 2339.74 949.852C2333.61 892.386 2320.54 846.652 2296.14 797.586C2277.07 759.319 2256.54 731.319 2223.87 698.919C2191.87 667.186 2164.54 646.519 2132.41 629.986C2082.94 604.386 2034.94 592.919 1978.14 592.919C1963.74 592.919 1956.41 592.386 1955.34 591.319C1954.27 590.252 1954.01 583.186 1954.67 565.052C1955.74 530.386 1952.67 486.652 1946.94 455.586C1940.01 417.986 1926.67 372.919 1911.34 336.252C1905.47 322.252 1885.61 283.719 1876.01 268.252C1817.47 172.386 1725.61 100.652 1613.74 63.1855C1583.61 53.0522 1562.94 48.2522 1523.07 42.1189C1513.34 40.6522 1447.74 39.319 1434.41 40.3856ZM1513.07 118.919C1530.94 120.919 1535.74 121.719 1558.41 126.252C1620.81 138.519 1684.81 170.252 1733.74 212.786C1789.34 261.319 1834.41 331.319 1860.14 409.586C1868.81 435.719 1873.87 458.786 1878.01 490.919C1879.21 499.852 1879.74 520.252 1879.74 552.252C1879.61 601.586 1879.07 609.719 1873.07 640.919C1870.27 655.719 1868.54 671.186 1869.47 674.786C1869.74 676.252 1871.34 678.919 1872.81 680.519C1876.14 684.252 1881.34 684.386 1893.61 681.452C1936.81 671.319 1953.07 668.919 1978.67 668.919C2017.61 669.052 2058.27 678.119 2091.74 694.119C2132.54 713.586 2169.74 743.986 2195.61 778.919C2216.14 806.652 2229.74 831.319 2243.74 866.919C2257.34 901.319 2262.94 926.119 2266.54 966.919C2271.47 1024.25 2260.41 1079.85 2233.74 1132.92C2227.07 1145.99 2210.81 1171.32 2201.07 1183.72C2190.27 1197.45 2160.67 1226.65 2147.07 1237.19C2117.61 1259.85 2082.14 1276.65 2047.07 1284.52C2033.47 1287.59 2000.27 1287.45 1983.87 1284.39C1962.14 1280.12 1926.41 1269.05 1898.94 1258.25C1894.41 1256.39 1888.81 1255.32 1883.47 1255.32C1872.94 1255.19 1864.14 1259.19 1841.74 1274.39C1806.01 1298.52 1786.67 1309.72 1760.94 1321.32C1734.41 1333.32 1706.94 1342.25 1680.41 1347.45C1650.67 1353.19 1646.67 1353.59 1610.41 1353.45C1573.47 1353.32 1571.61 1353.19 1537.47 1346.25C1502.01 1339.19 1452.54 1319.45 1404.41 1293.45C1374.01 1277.05 1366.54 1273.72 1358.67 1273.19C1351.61 1272.65 1350.41 1272.92 1343.34 1277.59C1339.21 1280.39 1322.81 1295.72 1307.07 1311.59C1277.21 1341.85 1265.21 1351.85 1248.41 1360.65C1227.47 1371.59 1215.07 1374.39 1189.61 1374.39C1161.21 1374.39 1136.41 1368.25 1109.21 1354.39C1080.41 1339.72 1057.87 1320.12 1022.81 1278.92C989.607 1240.12 984.54 1236.25 965.74 1236.25C951.34 1236.25 950.274 1236.79 916.94 1261.85C872.007 1295.72 857.207 1305.45 834.407 1316.65C803.074 1331.99 764.14 1342.39 738.14 1342.25C701.607 1341.99 650.674 1324.79 618.407 1301.59C595.607 1285.32 579.474 1268.39 550.407 1230.39C547.474 1226.52 542.14 1221.19 538.407 1218.52C532.54 1214.12 530.94 1213.59 523.74 1213.59C516.274 1213.72 514.14 1214.52 489.74 1227.19C438.007 1254.12 400.94 1266.79 359.74 1271.59C342.674 1273.72 311.874 1271.72 293.74 1267.45C267.74 1261.32 255.874 1257.32 237.207 1247.99C216.274 1237.59 202.407 1227.99 186.407 1212.65C139.607 1167.99 113.207 1107.72 113.474 1045.59C113.474 1007.72 122.674 969.852 139.474 938.252C157.607 904.119 189.874 873.052 225.207 855.852C247.34 845.052 275.874 837.052 299.607 834.919C319.874 833.186 328.54 829.052 332.407 819.586C335.874 811.052 328.274 796.919 307.74 774.252C286.407 750.386 279.074 730.519 279.074 695.452C279.074 673.852 281.074 663.319 288.274 646.386C301.607 615.052 333.074 587.452 368.007 576.119C400.007 565.852 438.407 569.852 473.474 586.919C490.807 595.319 498.94 596.252 503.207 590.252C505.207 587.586 505.874 582.386 507.074 564.252C511.074 502.119 529.474 453.186 563.74 413.052C601.874 368.386 646.807 342.786 702.94 333.452C719.607 330.786 759.074 331.452 775.074 334.786C808.54 341.719 836.54 353.052 863.607 370.786C878.94 380.652 881.207 381.586 885.207 378.919C886.94 377.719 892.407 370.786 897.207 363.452C916.007 334.919 938.007 317.852 961.874 313.452C970.407 311.852 974.007 311.719 980.141 312.919C1003.07 317.452 1033.74 332.919 1044.81 345.586C1046.14 347.052 1050.81 353.586 1055.34 360.252C1064.54 373.986 1069.47 379.586 1072.01 379.586C1073.07 379.586 1076.14 380.786 1079.07 382.252C1085.47 385.586 1092.54 385.719 1096.01 382.519C1097.47 381.319 1101.21 373.986 1104.41 366.252C1117.07 335.319 1141.61 292.252 1156.81 273.719C1168.01 260.252 1170.67 257.319 1185.07 242.519C1219.61 206.919 1253.87 181.586 1295.74 160.652C1356.67 130.252 1408.14 117.452 1470.41 117.052C1485.07 117.052 1503.07 117.719 1513.07 118.919Z" fill="white"/>
<path d="M1513.07 118.919C1530.94 120.919 1535.74 121.719 1558.41 126.252C1620.81 138.519 1684.81 170.252 1733.74 212.786C1789.34 261.319 1834.41 331.319 1860.14 409.586C1868.81 435.719 1873.87 458.786 1878.01 490.919C1879.21 499.852 1879.74 520.252 1879.74 552.252C1879.61 601.586 1879.07 609.719 1873.07 640.919C1870.27 655.719 1868.54 671.186 1869.47 674.786C1869.74 676.252 1871.34 678.919 1872.81 680.519C1876.14 684.252 1881.34 684.386 1893.61 681.452C1936.81 671.319 1953.07 668.919 1978.67 668.919C2017.61 669.052 2058.27 678.119 2091.74 694.119C2132.54 713.586 2169.74 743.986 2195.61 778.919C2216.14 806.652 2229.74 831.319 2243.74 866.919C2257.34 901.319 2262.94 926.119 2266.54 966.919C2271.47 1024.25 2260.41 1079.85 2233.74 1132.92C2227.07 1145.99 2210.81 1171.32 2201.07 1183.72C2190.27 1197.45 2160.67 1226.65 2147.07 1237.19C2117.61 1259.85 2082.14 1276.65 2047.07 1284.52C2033.47 1287.59 2000.27 1287.45 1983.87 1284.39C1962.14 1280.12 1926.41 1269.05 1898.94 1258.25C1894.41 1256.39 1888.81 1255.32 1883.47 1255.32C1872.94 1255.19 1864.14 1259.19 1841.74 1274.39C1806.01 1298.52 1786.67 1309.72 1760.94 1321.32C1734.41 1333.32 1706.94 1342.25 1680.41 1347.45C1650.67 1353.19 1646.67 1353.59 1610.41 1353.45C1573.47 1353.32 1571.61 1353.19 1537.47 1346.25C1502.01 1339.19 1452.54 1319.45 1404.41 1293.45C1374.01 1277.05 1366.54 1273.72 1358.67 1273.19C1351.61 1272.65 1350.41 1272.92 1343.34 1277.59C1339.21 1280.39 1322.81 1295.72 1307.07 1311.59C1277.21 1341.85 1265.21 1351.85 1248.41 1360.65C1227.47 1371.59 1215.07 1374.39 1189.61 1374.39C1161.21 1374.39 1136.41 1368.25 1109.21 1354.39C1080.41 1339.72 1057.87 1320.12 1022.81 1278.92C989.607 1240.12 984.54 1236.25 965.74 1236.25C951.34 1236.25 950.274 1236.79 916.94 1261.85C872.007 1295.72 857.207 1305.45 834.407 1316.65C803.074 1331.99 764.14 1342.39 738.14 1342.25C701.607 1341.99 650.674 1324.79 618.407 1301.59C595.607 1285.32 579.474 1268.39 550.407 1230.39C547.474 1226.52 542.14 1221.19 538.407 1218.52C532.54 1214.12 530.94 1213.59 523.74 1213.59C516.274 1213.72 514.14 1214.52 489.74 1227.19C438.007 1254.12 400.94 1266.79 359.74 1271.59C342.674 1273.72 311.874 1271.72 293.74 1267.45C267.74 1261.32 255.874 1257.32 237.207 1247.99C216.274 1237.59 202.407 1227.99 186.407 1212.65C139.607 1167.99 113.207 1107.72 113.474 1045.59C113.474 1007.72 122.674 969.852 139.474 938.252C157.607 904.119 189.874 873.052 225.207 855.852C247.34 845.052 275.874 837.052 299.607 834.919C319.874 833.186 328.54 829.052 332.407 819.586C335.874 811.052 328.274 796.919 307.74 774.252C286.407 750.386 279.074 730.519 279.074 695.452C279.074 673.852 281.074 663.319 288.274 646.386C301.607 615.052 333.074 587.452 368.007 576.119C400.007 565.852 438.407 569.852 473.474 586.919C490.807 595.319 498.94 596.252 503.207 590.252C505.207 587.586 505.874 582.386 507.074 564.252C511.074 502.119 529.474 453.186 563.74 413.052C601.874 368.386 646.807 342.786 702.94 333.452C719.607 330.786 759.074 331.452 775.074 334.786C808.54 341.719 836.54 353.052 863.607 370.786C878.94 380.652 881.207 381.586 885.207 378.919C886.94 377.719 892.407 370.786 897.207 363.452C916.007 334.919 938.007 317.852 961.874 313.452C970.407 311.852 974.007 311.719 980.141 312.919C1003.07 317.452 1033.74 332.919 1044.81 345.586C1046.14 347.052 1050.81 353.586 1055.34 360.252C1064.54 373.986 1069.47 379.586 1072.01 379.586C1073.07 379.586 1076.14 380.786 1079.07 382.252C1085.47 385.586 1092.54 385.719 1096.01 382.519C1097.47 381.319 1101.21 373.986 1104.41 366.252C1117.07 335.319 1141.61 292.252 1156.81 273.719C1168.01 260.252 1170.67 257.319 1185.07 242.519C1219.61 206.919 1253.87 181.586 1295.74 160.652C1356.67 130.252 1408.14 117.452 1470.41 117.052C1485.07 117.052 1503.07 117.719 1513.07 118.919Z" fill="white"/>
<path d="M1434.41 40.3856C1425.74 41.0523 1398.54 44.7855 1391.74 46.2522C1388.81 46.9189 1381.61 48.3856 1375.74 49.5856C1344.27 56.2522 1302.14 71.4523 1265.74 89.4523C1240.54 101.852 1229.07 108.786 1204.67 126.252C1178.94 144.652 1164.01 157.186 1141.74 179.586C1120.01 201.186 1104.67 219.452 1087.74 243.586C1080.81 253.452 1073.61 263.319 1071.87 265.586L1068.81 269.452L1057.61 262.652C1047.07 256.252 1030.41 249.319 1013.74 244.386C977.74 233.852 943.607 236.652 910.407 253.319C898.807 259.052 893.074 263.319 879.34 276.119C872.674 282.386 866.54 287.586 865.874 287.586C865.207 287.586 854.54 283.719 842.14 278.919C810.407 266.519 791.207 261.852 759.074 258.252C687.74 250.386 613.607 273.852 551.074 323.986C514.274 353.719 480.54 399.319 462.94 443.186C458.274 454.919 447.474 484.652 445.607 491.186C443.74 497.319 441.074 499.452 436.007 498.919C433.74 498.652 424.274 497.719 415.074 496.919C376.14 493.452 335.074 505.319 295.207 531.586C276.807 543.719 258.007 561.852 242.674 582.119C227.607 601.986 213.074 635.986 208.274 662.252C206.007 674.386 205.874 714.786 208.14 724.252C211.474 739.319 215.34 761.186 215.474 767.052C215.74 773.719 215.74 773.719 206.407 777.719C199.34 780.786 178.007 793.186 167.074 800.652C133.34 823.586 104.14 854.652 82.0071 891.586C69.4738 912.386 62.2738 927.986 52.8071 955.586C44.4071 979.852 40.1405 1009.05 40.0071 1042.92C39.7405 1091.72 46.9405 1127.99 65.4738 1172.25C76.6738 1199.32 88.6738 1219.32 105.874 1239.85C142.94 1284.39 172.674 1306.79 226.407 1330.92C257.074 1344.79 301.207 1352.92 344.94 1352.92C389.474 1352.92 415.074 1346.25 490.407 1315.05C511.474 1306.25 510.941 1306.25 526.274 1322.52C562.007 1360.65 596.94 1384.39 645.74 1403.59C685.74 1419.45 733.874 1425.99 768.54 1420.39C831.074 1410.12 874.274 1391.85 928.54 1352.79C938.54 1345.59 949.74 1338.12 953.474 1335.99C959.474 1332.65 960.407 1332.52 963.607 1334.12C965.474 1335.19 977.474 1346.92 990.274 1360.25C1032.94 1404.65 1066.27 1427.05 1114.41 1443.32C1141.34 1452.39 1156.67 1454.79 1187.74 1454.79C1217.21 1454.79 1227.34 1453.19 1249.74 1444.92C1282.14 1432.92 1307.21 1416.92 1342.27 1385.72C1347.34 1381.32 1354.81 1375.05 1358.81 1371.85C1369.61 1363.45 1371.07 1363.72 1404.01 1379.99C1433.87 1394.79 1451.61 1402.12 1473.74 1408.92C1481.47 1411.19 1489.21 1413.59 1491.07 1414.25C1497.61 1416.39 1519.07 1421.19 1535.07 1424.12C1606.14 1436.92 1666.54 1433.45 1740.41 1411.99C1780.01 1400.52 1808.54 1387.32 1854.41 1359.05C1868.41 1350.52 1881.87 1342.92 1884.67 1342.25C1888.67 1341.05 1891.47 1341.59 1902.01 1344.92C1928.41 1353.45 1958.27 1360.25 1989.34 1364.79C2002.67 1366.79 2031.74 1366.52 2047.74 1364.39C2089.07 1358.65 2122.41 1346.25 2160.14 1322.52C2208.81 1291.85 2245.34 1256.39 2276.94 1208.92C2309.47 1160.12 2331.61 1094.65 2339.21 1024.92C2342.27 996.652 2342.41 975.052 2339.74 949.852C2333.61 892.386 2320.54 846.652 2296.14 797.586C2277.07 759.319 2256.54 731.319 2223.87 698.919C2191.87 667.186 2164.54 646.519 2132.41 629.986C2082.94 604.386 2034.94 592.919 1978.14 592.919C1963.74 592.919 1956.41 592.386 1955.34 591.319C1954.27 590.252 1954.01 583.186 1954.67 565.052C1955.74 530.386 1952.67 486.652 1946.94 455.586C1940.01 417.986 1926.67 372.919 1911.34 336.252C1905.47 322.252 1885.61 283.719 1876.01 268.252C1817.47 172.386 1725.61 100.652 1613.74 63.1855C1583.61 53.0522 1562.94 48.2522 1523.07 42.1189C1513.34 40.6522 1447.74 39.319 1434.41 40.3856ZM1513.07 118.919C1530.94 120.919 1535.74 121.719 1558.41 126.252C1620.81 138.519 1684.81 170.252 1733.74 212.786C1789.34 261.319 1834.41 331.319 1860.14 409.586C1868.81 435.719 1873.87 458.786 1878.01 490.919C1879.21 499.852 1879.74 520.252 1879.74 552.252C1879.61 601.586 1879.07 609.719 1873.07 640.919C1870.27 655.719 1868.54 671.186 1869.47 674.786C1869.74 676.252 1871.34 678.919 1872.81 680.519C1876.14 684.252 1881.34 684.386 1893.61 681.452C1936.81 671.319 1953.07 668.919 1978.67 668.919C2017.61 669.052 2058.27 678.119 2091.74 694.119C2132.54 713.586 2169.74 743.986 2195.61 778.919C2216.14 806.652 2229.74 831.319 2243.74 866.919C2257.34 901.319 2262.94 926.119 2266.54 966.919C2271.47 1024.25 2260.41 1079.85 2233.74 1132.92C2227.07 1145.99 2210.81 1171.32 2201.07 1183.72C2190.27 1197.45 2160.67 1226.65 2147.07 1237.19C2117.61 1259.85 2082.14 1276.65 2047.07 1284.52C2033.47 1287.59 2000.27 1287.45 1983.87 1284.39C1962.14 1280.12 1926.41 1269.05 1898.94 1258.25C1894.41 1256.39 1888.81 1255.32 1883.47 1255.32C1872.94 1255.19 1864.14 1259.19 1841.74 1274.39C1806.01 1298.52 1786.67 1309.72 1760.94 1321.32C1734.41 1333.32 1706.94 1342.25 1680.41 1347.45C1650.67 1353.19 1646.67 1353.59 1610.41 1353.45C1573.47 1353.32 1571.61 1353.19 1537.47 1346.25C1502.01 1339.19 1452.54 1319.45 1404.41 1293.45C1374.01 1277.05 1366.54 1273.72 1358.67 1273.19C1351.61 1272.65 1350.41 1272.92 1343.34 1277.59C1339.21 1280.39 1322.81 1295.72 1307.07 1311.59C1277.21 1341.85 1265.21 1351.85 1248.41 1360.65C1227.47 1371.59 1215.07 1374.39 1189.61 1374.39C1161.21 1374.39 1136.41 1368.25 1109.21 1354.39C1080.41 1339.72 1057.87 1320.12 1022.81 1278.92C989.607 1240.12 984.54 1236.25 965.74 1236.25C951.34 1236.25 950.274 1236.79 916.94 1261.85C872.007 1295.72 857.207 1305.45 834.407 1316.65C803.074 1331.99 764.14 1342.39 738.14 1342.25C701.607 1341.99 650.674 1324.79 618.407 1301.59C595.607 1285.32 579.474 1268.39 550.407 1230.39C547.474 1226.52 542.14 1221.19 538.407 1218.52C532.54 1214.12 530.94 1213.59 523.74 1213.59C516.274 1213.72 514.14 1214.52 489.74 1227.19C438.007 1254.12 400.94 1266.79 359.74 1271.59C342.674 1273.72 311.874 1271.72 293.74 1267.45C267.74 1261.32 255.874 1257.32 237.207 1247.99C216.274 1237.59 202.407 1227.99 186.407 1212.65C139.607 1167.99 113.207 1107.72 113.474 1045.59C113.474 1007.72 122.674 969.852 139.474 938.252C157.607 904.119 189.874 873.052 225.207 855.852C247.34 845.052 275.874 837.052 299.607 834.919C319.874 833.186 328.54 829.052 332.407 819.586C335.874 811.052 328.274 796.919 307.74 774.252C286.407 750.386 279.074 730.519 279.074 695.452C279.074 673.852 281.074 663.319 288.274 646.386C301.607 615.052 333.074 587.452 368.007 576.119C400.007 565.852 438.407 569.852 473.474 586.919C490.807 595.319 498.94 596.252 503.207 590.252C505.207 587.586 505.874 582.386 507.074 564.252C511.074 502.119 529.474 453.186 563.74 413.052C601.874 368.386 646.807 342.786 702.94 333.452C719.607 330.786 759.074 331.452 775.074 334.786C808.54 341.719 836.54 353.052 863.607 370.786C878.94 380.652 881.207 381.586 885.207 378.919C886.94 377.719 892.407 370.786 897.207 363.452C916.007 334.919 938.007 317.852 961.874 313.452C970.407 311.852 974.007 311.719 980.141 312.919C1003.07 317.452 1033.74 332.919 1044.81 345.586C1046.14 347.052 1050.81 353.586 1055.34 360.252C1064.54 373.986 1069.47 379.586 1072.01 379.586C1073.07 379.586 1076.14 380.786 1079.07 382.252C1085.47 385.586 1092.54 385.719 1096.01 382.519C1097.47 381.319 1101.21 373.986 1104.41 366.252C1117.07 335.319 1141.61 292.252 1156.81 273.719C1168.01 260.252 1170.67 257.319 1185.07 242.519C1219.61 206.919 1253.87 181.586 1295.74 160.652C1356.67 130.252 1408.14 117.452 1470.41 117.052C1485.07 117.052 1503.07 117.719 1513.07 118.919Z" stroke="black" stroke-width="80" mask="url(#path-1-outside-1_30_8)"/>
<path d="M1513.07 118.919C1530.94 120.919 1535.74 121.719 1558.41 126.252C1620.81 138.519 1684.81 170.252 1733.74 212.786C1789.34 261.319 1834.41 331.319 1860.14 409.586C1868.81 435.719 1873.87 458.786 1878.01 490.919C1879.21 499.852 1879.74 520.252 1879.74 552.252C1879.61 601.586 1879.07 609.719 1873.07 640.919C1870.27 655.719 1868.54 671.186 1869.47 674.786C1869.74 676.252 1871.34 678.919 1872.81 680.519C1876.14 684.252 1881.34 684.386 1893.61 681.452C1936.81 671.319 1953.07 668.919 1978.67 668.919C2017.61 669.052 2058.27 678.119 2091.74 694.119C2132.54 713.586 2169.74 743.986 2195.61 778.919C2216.14 806.652 2229.74 831.319 2243.74 866.919C2257.34 901.319 2262.94 926.119 2266.54 966.919C2271.47 1024.25 2260.41 1079.85 2233.74 1132.92C2227.07 1145.99 2210.81 1171.32 2201.07 1183.72C2190.27 1197.45 2160.67 1226.65 2147.07 1237.19C2117.61 1259.85 2082.14 1276.65 2047.07 1284.52C2033.47 1287.59 2000.27 1287.45 1983.87 1284.39C1962.14 1280.12 1926.41 1269.05 1898.94 1258.25C1894.41 1256.39 1888.81 1255.32 1883.47 1255.32C1872.94 1255.19 1864.14 1259.19 1841.74 1274.39C1806.01 1298.52 1786.67 1309.72 1760.94 1321.32C1734.41 1333.32 1706.94 1342.25 1680.41 1347.45C1650.67 1353.19 1646.67 1353.59 1610.41 1353.45C1573.47 1353.32 1571.61 1353.19 1537.47 1346.25C1502.01 1339.19 1452.54 1319.45 1404.41 1293.45C1374.01 1277.05 1366.54 1273.72 1358.67 1273.19C1351.61 1272.65 1350.41 1272.92 1343.34 1277.59C1339.21 1280.39 1322.81 1295.72 1307.07 1311.59C1277.21 1341.85 1265.21 1351.85 1248.41 1360.65C1227.47 1371.59 1215.07 1374.39 1189.61 1374.39C1161.21 1374.39 1136.41 1368.25 1109.21 1354.39C1080.41 1339.72 1057.87 1320.12 1022.81 1278.92C989.607 1240.12 984.54 1236.25 965.74 1236.25C951.34 1236.25 950.274 1236.79 916.94 1261.85C872.007 1295.72 857.207 1305.45 834.407 1316.65C803.074 1331.99 764.14 1342.39 738.14 1342.25C701.607 1341.99 650.674 1324.79 618.407 1301.59C595.607 1285.32 579.474 1268.39 550.407 1230.39C547.474 1226.52 542.14 1221.19 538.407 1218.52C532.54 1214.12 530.94 1213.59 523.74 1213.59C516.274 1213.72 514.14 1214.52 489.74 1227.19C438.007 1254.12 400.94 1266.79 359.74 1271.59C342.674 1273.72 311.874 1271.72 293.74 1267.45C267.74 1261.32 255.874 1257.32 237.207 1247.99C216.274 1237.59 202.407 1227.99 186.407 1212.65C139.607 1167.99 113.207 1107.72 113.474 1045.59C113.474 1007.72 122.674 969.852 139.474 938.252C157.607 904.119 189.874 873.052 225.207 855.852C247.34 845.052 275.874 837.052 299.607 834.919C319.874 833.186 328.54 829.052 332.407 819.586C335.874 811.052 328.274 796.919 307.74 774.252C286.407 750.386 279.074 730.519 279.074 695.452C279.074 673.852 281.074 663.319 288.274 646.386C301.607 615.052 333.074 587.452 368.007 576.119C400.007 565.852 438.407 569.852 473.474 586.919C490.807 595.319 498.94 596.252 503.207 590.252C505.207 587.586 505.874 582.386 507.074 564.252C511.074 502.119 529.474 453.186 563.74 413.052C601.874 368.386 646.807 342.786 702.94 333.452C719.607 330.786 759.074 331.452 775.074 334.786C808.54 341.719 836.54 353.052 863.607 370.786C878.94 380.652 881.207 381.586 885.207 378.919C886.94 377.719 892.407 370.786 897.207 363.452C916.007 334.919 938.007 317.852 961.874 313.452C970.407 311.852 974.007 311.719 980.141 312.919C1003.07 317.452 1033.74 332.919 1044.81 345.586C1046.14 347.052 1050.81 353.586 1055.34 360.252C1064.54 373.986 1069.47 379.586 1072.01 379.586C1073.07 379.586 1076.14 380.786 1079.07 382.252C1085.47 385.586 1092.54 385.719 1096.01 382.519C1097.47 381.319 1101.21 373.986 1104.41 366.252C1117.07 335.319 1141.61 292.252 1156.81 273.719C1168.01 260.252 1170.67 257.319 1185.07 242.519C1219.61 206.919 1253.87 181.586 1295.74 160.652C1356.67 130.252 1408.14 117.452 1470.41 117.052C1485.07 117.052 1503.07 117.719 1513.07 118.919Z" stroke="black" stroke-width="80" mask="url(#path-1-outside-1_30_8)"/>
</svg>
