<?xml version="1.0" standalone="no"?>
<!DOCTYPE svg PUBLIC "-//W3C//DTD SVG 20010904//EN"
 "http://www.w3.org/TR/2001/REC-SVG-20010904/DTD/svg10.dtd">
<svg version="1.0" xmlns="http://www.w3.org/2000/svg"
 width="1726.238717pt" height="1061.090711pt" viewBox="0 0 1726.238717 1061.090711"
 preserveAspectRatio="xMidYMid meet">

<g transform="translate(-135.661703,1570.662466) scale(0.100000,-0.100000)"
fill="#000000" stroke="none">
<path d="M11815 15704 c-65 -5 -269 -33 -320 -44 -22 -5 -76 -16 -120 -25
-236 -50 -552 -164 -825 -299 -189 -93 -275 -145 -458 -276 -193 -138 -305
-232 -472 -400 -163 -162 -278 -299 -405 -480 -52 -74 -106 -148 -119 -165
l-23 -29 -84 51 c-79 48 -204 100 -329 137 -270 79 -526 58 -775 -67 -87 -43
-130 -75 -233 -171 -50 -47 -96 -86 -101 -86 -5 0 -85 29 -178 65 -238 93
-382 128 -623 155 -535 59 -1091 -117 -1560 -493 -276 -223 -529 -565 -661
-894 -35 -88 -116 -311 -130 -360 -14 -46 -34 -62 -72 -58 -17 2 -88 9 -157
15 -292 26 -600 -63 -899 -260 -138 -91 -279 -227 -394 -379 -113 -149 -222
-404 -258 -601 -17 -91 -18 -394 -1 -465 25 -113 54 -277 55 -321 2 -50 2 -50
-68 -80 -53 -23 -213 -116 -295 -172 -253 -172 -472 -405 -638 -682 -94 -156
-148 -273 -219 -480 -63 -182 -95 -401 -96 -655 -2 -366 52 -638 191 -970 84
-203 174 -353 303 -507 278 -334 501 -502 904 -683 230 -104 561 -165 889
-165 334 0 526 50 1091 284 158 66 154 66 269 -56 268 -286 530 -464 896 -608
300 -119 661 -168 921 -126 469 77 793 214 1200 507 75 54 159 110 187 126 45
25 52 26 76 14 14 -8 104 -96 200 -196 320 -333 570 -501 931 -623 202 -68
317 -86 550 -86 221 0 297 12 465 74 243 90 431 210 694 444 38 33 94 80 124
104 81 63 92 61 339 -61 224 -111 357 -166 523 -217 58 -17 116 -35 130 -40
49 -16 210 -52 330 -74 533 -96 986 -70 1540 91 297 86 511 185 855 397 105
64 206 121 227 126 30 9 51 5 130 -20 198 -64 422 -115 655 -149 100 -15 318
-13 438 3 310 43 560 136 843 314 365 230 639 496 876 852 244 366 410 857
467 1380 23 212 24 374 4 563 -46 431 -144 774 -327 1142 -143 287 -297 497
-542 740 -240 238 -445 393 -686 517 -371 192 -731 278 -1157 278 -108 0 -163
4 -171 12 -8 8 -10 61 -5 197 8 260 -15 588 -58 821 -52 282 -152 620 -267
895 -44 105 -193 394 -265 510 -439 719 -1128 1257 -1967 1538 -226 76 -381
112 -680 158 -73 11 -565 21 -665 13z m590 -589 c134 -15 170 -21 340 -55 468
-92 948 -330 1315 -649 417 -364 755 -889 948 -1476 65 -196 103 -369 134
-610 9 -67 13 -220 13 -460 -1 -370 -5 -431 -50 -665 -21 -111 -34 -227 -27
-254 2 -11 14 -31 25 -43 25 -28 64 -29 156 -7 324 76 446 94 638 94 292 -1
597 -69 848 -189 306 -146 585 -374 779 -636 154 -208 256 -393 361 -660 102
-258 144 -444 171 -750 37 -430 -46 -847 -246 -1245 -50 -98 -172 -288 -245
-381 -81 -103 -303 -322 -405 -401 -221 -170 -487 -296 -750 -355 -102 -23
-351 -22 -474 1 -163 32 -431 115 -637 196 -34 14 -76 22 -116 22 -79 1 -145
-29 -313 -143 -268 -181 -413 -265 -606 -352 -199 -90 -405 -157 -604 -196
-223 -43 -253 -46 -525 -45 -277 1 -291 2 -547 54 -266 53 -637 201 -998 396
-228 123 -284 148 -343 152 -53 4 -62 2 -115 -33 -31 -21 -154 -136 -272 -255
-224 -227 -314 -302 -440 -368 -157 -82 -250 -103 -441 -103 -213 0 -399 46
-603 150 -216 110 -385 257 -648 566 -249 291 -287 320 -428 320 -108 0 -116
-4 -366 -192 -337 -254 -448 -327 -619 -411 -235 -115 -527 -193 -722 -192
-274 2 -656 131 -898 305 -171 122 -292 249 -510 534 -22 29 -62 69 -90 89
-44 33 -56 37 -110 37 -56 -1 -72 -7 -255 -102 -388 -202 -666 -297 -975 -333
-128 -16 -359 -1 -495 31 -195 46 -284 76 -424 146 -157 78 -261 150 -381 265
-351 335 -549 787 -547 1253 0 284 69 568 195 805 136 256 378 489 643 618
166 81 380 141 558 157 152 13 217 44 246 115 26 64 -31 170 -185 340 -160
179 -215 328 -215 591 0 162 15 241 69 368 100 235 336 442 598 527 240 77
528 47 791 -81 130 -63 191 -70 223 -25 15 20 20 59 29 195 30 466 168 833
425 1134 286 335 623 527 1044 597 125 20 421 15 541 -10 251 -52 461 -137
664 -270 115 -74 132 -81 162 -61 13 9 54 61 90 116 141 214 306 342 485 375
64 12 91 13 137 4 172 -34 402 -150 485 -245 10 -11 45 -60 79 -110 69 -103
106 -145 125 -145 8 0 31 -9 53 -20 48 -25 101 -26 127 -2 11 9 39 64 63 122
95 232 279 555 393 694 84 101 104 123 212 234 259 267 516 457 830 614 457
228 843 324 1310 327 110 0 245 -5 320 -14z"/>
</g>
</svg>
